<svg width="42" height="57" viewBox="0 0 42 57" fill="none" xmlns="http://www.w3.org/2000/svg">
<path d="M24.1 35.1004C24 35.1004 24 35.1004 24.1 35.1004C23.5 35.1004 23.2 34.6004 23.2 34.1004C23.4 30.8004 25.9 29.3004 27.7 28.8004V20.8004C27.7 20.3004 28.1 19.9004 28.6 19.9004C29.1 19.9004 29.5 20.3004 29.5 20.8004V29.6004C29.5 30.1004 29.2 30.4004 28.7 30.5004C28.6 30.5004 25.2 31.0004 25 34.2004C24.9 34.7004 24.5 35.1004 24.1 35.1004Z" fill="#2E73B9"/>
<path d="M28.6 46.1992H12.5C12 46.1992 11.6 45.7992 11.6 45.2992V42.0992C11.6 39.8992 11.3 37.7992 10.6 35.6992L9.69995 32.6992C9.69995 32.5992 9.69995 32.4992 9.69995 32.3992V30.0992C9.69995 29.5992 10.1 29.1992 10.6 29.1992C11.1 29.1992 11.5 29.5992 11.5 30.0992V32.2992L12.4 35.0992C13.1 37.3992 13.5 39.6992 13.5 42.0992V44.3992H27.7999V38.6992C27.7999 38.4992 27.9 38.1992 28 38.0992L32 33.8992C33 32.7992 33.5999 31.2992 33.5999 29.7992V20.9992C33.5999 19.8992 32.7999 18.9992 31.7999 18.8992C31.1999 18.8992 30.6999 18.9992 30.2999 19.3992C29.9 19.7992 29.7 20.2992 29.7 20.8992C29.7 21.3992 29.2999 21.7992 28.7999 21.7992C28.2999 21.7992 27.9 21.3992 27.9 20.8992C27.9 19.7992 28.4 18.7992 29.1 18.0992C29.9 17.3992 31 16.9992 32 17.0992C33.9 17.2992 35.5 18.9992 35.5 20.9992V29.6992C35.5 31.6992 34.8 33.5992 33.4 34.9992L29.7 38.9992V45.2992C29.5 45.7992 29.1 46.1992 28.6 46.1992Z" fill="#2E73B9"/>
<path d="M29.7 50.9004H11.4C10.9 50.9004 10.5 50.5004 10.5 50.0004V45.3004C10.5 44.8004 10.9 44.4004 11.4 44.4004H29.7C30.2 44.4004 30.6 44.8004 30.6 45.3004V50.0004C30.6 50.5004 30.2 50.9004 29.7 50.9004ZM12.3 49.1004H28.8V46.2004H12.3V49.1004Z" fill="#2E73B9"/>
<path d="M32.9 56.4996H8.09995C7.59995 56.4996 7.19995 56.0996 7.19995 55.5996V49.9996C7.19995 49.4996 7.59995 49.0996 8.09995 49.0996H32.7999C33.2999 49.0996 33.7 49.4996 33.7 49.9996V55.5996C33.8 56.0996 33.4 56.4996 32.9 56.4996ZM9.09995 54.6996H32V50.8996H9.09995V54.6996Z" fill="#2E73B9"/>
<path d="M40.9 31.1H34.4C33.9 31.1 33.5 30.7 33.5 30.2V20.9C33.5 19.8 32.6 18.9 31.5 18.9C30.4 18.9 29.5 19.8 29.5 20.9V30.2C29.5 30.7 29.1 31.1 28.6 31.1H0.9C0.4 31.1 0 30.7 0 30.2V0.9C0 0.4 0.4 0 0.9 0H40.9C41.4 0 41.8 0.4 41.8 0.9V3.8C41.8 4.3 41.4 4.7 40.9 4.7C40.4 4.7 40 4.3 40 3.8V1.8H1.8V29.2H27.6V20.8C27.6 18.7 29.3 17 31.4 17C33.5 17 35.2 18.7 35.2 20.8V29.2H40V8.7C40 8.2 40.4 7.8 40.9 7.8C41.4 7.8 41.8 8.2 41.8 8.7V30.1C41.8 30.7 41.4 31.1 40.9 31.1Z" fill="#2E73B9"/>
<path d="M25.7999 6.60078H16.7999C16.2999 6.60078 15.8999 6.20078 15.8999 5.70078C15.8999 5.20078 16.2999 4.80078 16.7999 4.80078H25.7999C26.2999 4.80078 26.6999 5.20078 26.6999 5.70078C26.6999 6.20078 26.2999 6.60078 25.7999 6.60078Z" fill="#2E73B9"/>
<path d="M35.4 10.7004H7.09995C6.59995 10.7004 6.19995 10.3004 6.19995 9.80039C6.19995 9.30039 6.59995 8.90039 7.09995 8.90039H35.2999C35.7999 8.90039 36.2 9.30039 36.2 9.80039C36.3 10.3004 35.9 10.7004 35.4 10.7004Z" fill="#2E73B9"/>
<path d="M35.4 14.8H7.09995C6.59995 14.8 6.19995 14.4 6.19995 13.9C6.19995 13.4 6.59995 13 7.09995 13H35.2999C35.7999 13 36.2 13.4 36.2 13.9C36.3 14.4 35.9 14.8 35.4 14.8Z" fill="#2E73B9"/>
<path d="M30.1 18.9992H7.09995C6.59995 18.9992 6.19995 18.5992 6.19995 18.0992C6.19995 17.5992 6.59995 17.1992 7.09995 17.1992H30C30.5 17.1992 30.9 17.5992 30.9 18.0992C31 18.5992 30.6 18.9992 30.1 18.9992Z" fill="#2E73B9"/>
<path d="M28.6 23.1008H7.09995C6.59995 23.1008 6.19995 22.7008 6.19995 22.2008C6.19995 21.7008 6.59995 21.3008 7.09995 21.3008H28.5C29 21.3008 29.4 21.7008 29.4 22.2008C29.5 22.7008 29.1 23.1008 28.6 23.1008Z" fill="#2E73B9"/>
<path d="M40.0001 56.4992H1.0001C0.500098 56.4992 0.100098 56.0992 0.100098 55.5992C0.100098 55.0992 0.500098 54.6992 1.0001 54.6992H40.0001C40.5001 54.6992 40.9001 55.0992 40.9001 55.5992C41.0001 56.0992 40.5001 56.4992 40.0001 56.4992Z" fill="#2E73B9"/>
</svg>
